<svg xmlns="http://www.w3.org/2000/svg" width="256" height="256" viewBox="0 0 256 256" id="empty-room-large" data-supported-dps="256x256">
  <path d="M177.57 0v.06C79.06 2.61 0 82.19 0 180h180V0z" fill="#e8f3ff"/>
  <circle cx="155" cy="82.84" r="5" fill="#d0e8ff"/>
  <circle cx="139" cy="82.84" r="5" fill="#d0e8ff"/>
  <circle cx="123" cy="82.84" r="5" fill="#d0e8ff"/>
  <circle cx="107" cy="82.84" r="5" fill="#d0e8ff"/>
  <circle cx="91" cy="82.84" r="5" fill="#d0e8ff"/>
  <circle cx="75" cy="82.84" r="5" fill="#d0e8ff"/>
  <circle cx="59" cy="82.84" r="5" fill="#d0e8ff"/>
  <circle cx="43" cy="82.84" r="5" fill="#d0e8ff"/>
  <circle cx="27" cy="82.84" r="5" fill="#d0e8ff"/>
  <circle cx="11" cy="82.84" r="5" fill="#d0e8ff"/>
  <path fill="#38434f" d="M36 198h2v40h-2z"/>
  <path d="M24 238v-1.89a4.12 4.12 0 014.11-4.11h17.78a4.12 4.12 0 014.11 4.11V238h2v-1.89a6.12 6.12 0 00-6.11-6.11H28.11a6.12 6.12 0 00-6.11 6.11V238z" fill="#38434f"/>
  <path d="M34 239a3 3 0 103-3 3 3 0 00-3 3zM20 239a3 3 0 103-3 3 3 0 00-3 3zM48 239a3 3 0 103-3 3 3 0 00-3 3z" fill="#464f6a"/>
  <path d="M24 182v-42a10 10 0 0110-10h26a10 10 0 0110 10v46a16 16 0 01-16 16H18a10 10 0 01-10-10v-10z" fill="#6692b8"/>
  <path fill="#38434f" d="M104 198h2v40h-2z"/>
  <path d="M92 238v-1.89a4.12 4.12 0 014.11-4.11h17.78a4.12 4.12 0 014.11 4.11V238h2v-1.89a6.12 6.12 0 00-6.11-6.11H96.11a6.12 6.12 0 00-6.11 6.11V238z" fill="#38434f"/>
  <path d="M102 239a3 3 0 103-3 3 3 0 00-3 3zM88 239a3 3 0 103-3 3 3 0 00-3 3zM116 239a3 3 0 103-3 3 3 0 00-3 3z" fill="#464f6a"/>
  <path d="M90 182v-42a10 10 0 0110-10h26a10 10 0 0110 10v46a16 16 0 01-16 16H84a10 10 0 01-10-10v-10z" fill="#6692b8"/>
  <path fill="#6e6558" d="M0 186v5.97h140.26V256H146v-70H0z"/>
  <path fill="#e9e5df" d="M0 170h146v20H0z"/>
  <path d="M13.49 165.87a7.51 7.51 0 015.22 1.85 9.44 9.44 0 006.51 2.28h1a9.44 9.44 0 006.51-2.28 7.51 7.51 0 015.22-1.85c3.46 0 6.26 1.85 6.27 4.13H46c0-7.47-8.67-16-20-16s-21 8.53-21 16h2.2c.03-2.28 2.8-4.13 6.29-4.13z" fill="#5b696b"/>
  <circle cx="19.02" cy="159" r="1" fill="#1f2122"/>
  <circle cx="23.02" cy="159" r="1" fill="#1f2122"/>
  <circle cx="29.02" cy="159" r="1" fill="#1f2122"/>
  <circle cx="33.02" cy="159" r="1" fill="#1f2122"/>
  <rect x="18.02" y="162" width="16" height="2" rx="1" fill="#7ce3b3"/>
  <path fill="#c0d1e2" d="M180 0h76v196h-76z"/>
  <path d="M186 30v21.21c3.86 1.64 7.09 5 9.77 8.51C201.33 67 200.43 71.58 206 76c.24.19 6 8 6 8l6 12v40a19.26 19.26 0 01-3.37 10.87l-12.82 18.66L198 196h-12v34l70-24V6z" fill="#f6fbff"/>
  <path fill="#f5cea9" d="M182 196h4v4h-4z"/>
  <path fill="#3a8ce9" d="M182 200h4v16h-4z"/>
  <path d="M186 214h-3.54a1 1 0 00-.9 1v2a1 1 0 00.9 1H186z" fill="#0d2135" fill-rule="evenodd"/>
  <path fill="#dad6d7" d="M186 196h8v4h-8z"/>
  <path fill="#f5cea9" d="M171 176.15l11 8.18-7.37 5.63-9.84-5.38 6.21-8.43z"/>
  <path d="M216 72l-10 4c2.06 2.81 4 5.24 5.69 7.74l5.5-4.24a29 29 0 0112-6c5.75-1.15 8.85-2.8 10.45-4 .64-.5.36-1.5.36-1.5h-14a16.08 16.08 0 00-10 4z" fill="#dad6d7"/>
  <path fill="#c7cfd7" d="M252 36h-2l-8 30h-32v2h34l8-32z"/>
  <path fill="#043a20" d="M167.88 180.37l13.74 8.52-1.28-28.57-12.46 20.05z"/>
  <path d="M166.34 13.76c.63 0 1.21.13 1.8.22a13.41 13.41 0 00-1.8-.22z" fill="#f5cea9"/>
  <path d="M154.51 69.45c-.23-.31-.26-.35 0 0z" fill="#ef89b2"/>
  <path fill="#004d2a" d="M178 106h8v90h-8z"/>
  <path d="M179.81 21.65C176 14.12 163 9 153.32 19c-5.54 5.7-8.08 11.84-10.3 20.27-2.54 9.61-3.71 17.89-15 23.64 9.17 6.73 19.3 6.91 26.32 5.84-1.94-6.91.76-9.15 5.3-12.81.69-.55 16-3.9 16.11-3.84.4 0 4.1-1.05 4.45-1.07 4.21-11.46 3.72-21.32-.39-29.38z" fill="#4f1351"/>
  <path d="M186 51.21c-.67-.62-4.19-1-4.59-1a56.78 56.78 0 00-9.64 1c-3.14.48-6.26 1-9.34 1.77-3.81 1-8.39 2.89-9.55 7-1.09 3.82.54 7.53 2.66 10.67 2.31 3.35 5.9 8.11 8.46 11.35 2.93 3.71 5.54 5.92 8 10a65.84 65.84 0 016 14h8V51.21z" fill="#ef89b2"/>
  <path d="M210 98.42l8-2.42-6-12s-5.76-7.81-6-8c-5.57-4.42-4.67-9-10.23-16.28-2.68-3.48-5.91-6.87-9.77-8.51V106z" fill="#f5e3f0"/>
  <path d="M207.06 40.54c-.43.44-1.91 3.57-2.57 3.22-.39-.21.72-3 1.49-6.69.13-.66-1-1.43-1.4-.18-.81 2.31-1.09 3.24-1.67 4.87-.1.29-.57 1.34-.93 1.29-.88-.13.07-3.94.62-6.83a.87.87 0 00-1.61-.59 59.6 59.6 0 00-1.4 6c-.12.57-.17 1.54-.79 1.59-.34 0-.6-2.05-.72-3s0-3.16-1-3.64c-1.47-.72-1.06 2.64-1 3.17.15 2 .14 4.19.35 6.23-1.14-1.39-1.76-3.64-3.65-4.23-.45-.14-1.43.17-1 .93.71 1.19 2 3.39 2.21 4.63.61 4.45 2.11 5.55 1.39 7.82-.19.59-9.33 18-9.33 18s-2.42-.94-8.79-5a71 71 0 01-7.51-5.4 44.72 44.72 0 00-7.41-5.35 6.23 6.23 0 00-8.88 7.09c.6 3 3.12 5.93 5.13 7.62 6 5.1 22.8 14.64 28.75 14.88a5 5 0 003.58-1.25c1-.92 3.15-2.71 5.63-9.42a113.16 113.16 0 005.16-16.92A30.87 30.87 0 01204 52c.91-1.83 1.63-3.75 2.36-5.66A24 24 0 00208 41a.55.55 0 00-.94-.46z" fill="#f5cea9" fill-rule="evenodd"/>
  <path d="M186 200v18h20.93a3.75 3.75 0 003.87-3.64 4.17 4.17 0 00-3.46-4.07l-3.71-.72c-4.35-.84-8.77-4.88-9.42-7.15A10.53 10.53 0 01194 200z" fill="#cdddf0" fill-rule="evenodd"/>
  <path d="M210.83 214H186v4h21.64c1.76 0 3.16-1.79 3.16-4zM201.56 208.51c.14-.5-.79-.73-.93-.24s-.46 1.64-.62 2.19a.37.37 0 00.28.46.45.45 0 00.65-.22l.62-2.19zM198.46 206.93c.27-.46-.58-.9-.83-.46l-1.2 2a.37.37 0 00.14.51.46.46 0 00.69-.06l1.2-2zM196.49 205.17c.39-.37-.32-1-.68-.65l-1.7 1.61a.37.37 0 000 .53.46.46 0 00.68.11l1.7-1.6zM194.75 202.81c.48-.26 0-1.05-.48-.79l-2.07 1.14a.36.36 0 00-.15.51.46.46 0 00.63.28l2.07-1.14z" fill="#c7cfd7" fill-rule="evenodd"/>
  <path d="M178.34 208.1c-.64-.95-2.36-2.95-3.09-4a13.7 13.7 0 01-1.87-12.23 3.57 3.57 0 011.76-2.24l-8.41-7.63-10.55 11.55a14 14 0 01-1.38 1.65l21.27 17.2 1.14-.4s2.29-2.18 1.13-3.9z" fill="#2c64b2"/>
  <path fill="#0d2135" d="M177.21 212l.02.02-.02-.02zM156.49 193.72a.94.94 0 00-.31-.17.85.85 0 00-.88.24l-1.12 1.21a.84.84 0 00.06 1.21l18.17 16.15c1.24 1.24 3.54.87 4.79-.38z"/>
  <path d="M174.42 202.15c.46-.26 0-1.08-.49-.82l-2 1.11a.37.37 0 00-.13.52c.1.24.36.45.62.3l2-1.11zM173.35 199.15c.51-.12.22-1-.27-.91l-2.24.55a.35.35 0 00-.25.46c0 .26.23.52.52.45l2.24-.55zM172.8 196.11c.54 0 .48-.94 0-.94l-2.33-.06a.36.36 0 00-.37.37.45.45 0 00.4.56l2.33.07zM173 193.15c.52.15.72-.77.21-.9l-2.26-.67a.38.38 0 00-.47.26.45.45 0 00.25.64l2.27.67z" fill="#0d2135" fill-rule="evenodd"/>
  <path d="M169.46 42.51c-3.24-5.25-2.32-9-3.59-12.26-1.34-3.45-2.33-3.88-8.25-5.21a11.78 11.78 0 01-4.78-2.04 11.58 11.58 0 00-.59 6.38c.47 3-.54 4.79-.21 6.09s2.17.6 2.62 3.05c1 4.31 1.3 4.4 6 4.82 3.38.29 2.59 6.13 1.77 9.75 12.66 7.14 16.11-2.76 16.11-2.76s-6.07-2.95-9.08-7.82z" fill="#f5cea9"/>
</svg>
